<svg width="108" height="56" viewBox="0 0 108 56" fill="none" xmlns="http://www.w3.org/2000/svg">
  <path d="M31.5489 14.3358C31.5526 14.0254 31.508 6.67449 25.3767 2.47107C21.9262 0.104443 18.3233 0.0152071 17.2152 0.00219342C16.4233 -0.00896115 15.3394 0.00777054 13.9916 0.413054C10.45 1.47646 8.60763 4.22978 8.16145 4.93995C6.51243 7.56686 6.50499 10.1213 6.51615 10.7013C6.55333 13.0066 7.35646 15.2598 8.36781 16.4626C8.45518 16.5667 8.68386 16.8289 9.16722 17.3996C9.92015 18.2864 10.5206 19.0133 10.9055 19.4799C8.48121 22.3151 6.05881 25.1502 3.63455 27.9853C2.69756 29.216 -0.00742108 33.0923 1.53023e-05 38.6844C1.53023e-05 39.8333 0.120856 45.9814 4.93777 50.8243C9.14491 55.0537 15.7001 57.0448 20.8739 55.3512C22.0879 54.9534 22.9747 54.4347 23.4339 54.1632C24.4044 53.5869 29.4388 50.6049 30.201 44.9273C30.6937 41.263 29.1599 38.32 28.6468 37.4277C27.8009 35.9646 26.6167 34.6948 24.897 32.8543C23.8745 31.7593 22.9822 30.8985 22.3594 30.3166C24.3263 27.9611 26.2914 25.6057 28.2583 23.2521C29.1321 22.1756 31.4987 18.9613 31.5489 14.3358ZM22.9097 33.5719C24.172 34.9495 24.9398 36.7844 24.9398 38.7978C24.9398 43.0737 21.4726 46.541 17.1967 46.541C12.9207 46.541 9.45352 43.0737 9.45352 38.7978C9.45352 36.7863 10.2213 34.9532 11.4799 33.5756L17.1334 26.7564L22.9059 33.5719H22.9097ZM22.1437 18.4054H22.153L17.2543 24.3117L12.2459 18.4054H12.2515C11.3591 17.3085 10.8237 15.9105 10.8237 14.386C10.8237 10.8668 13.6774 8.01304 17.1985 8.01304C20.7196 8.01304 23.5715 10.8668 23.5715 14.386C23.5715 15.9105 23.0379 17.3085 22.1456 18.4054H22.1437Z" fill="#F05722"></path>
  <path d="M59.121 44.6335C59.1136 42.8079 59.121 42.2725 59.121 41.4043C59.121 40.3558 59.1266 39.7292 59.121 38.6287C59.108 36.2695 59.1229 36.3717 59.121 36.2918C59.0392 33.5663 58.5354 31.9117 58.5354 31.9117C58.1543 30.8799 57.5798 29.7162 56.7153 28.5598C55.4344 26.8494 54.0661 25.8957 53.4062 25.4439C52.2405 24.6445 51.2831 24.243 50.9968 24.1277C50.8109 24.0515 50.1843 23.8024 49.357 23.5941C46.2579 22.8115 43.4823 23.3878 43.0305 23.4845C42.3352 23.6351 41.2477 23.8767 39.9872 24.533C38.9498 25.0721 38.0686 25.7507 37.5053 26.182C37.1521 26.4534 36.8658 26.6895 36.6706 26.8569C36.4122 27.0893 36.1407 27.357 35.8674 27.66C35.464 28.108 35.1368 28.5468 34.871 28.9446C35.6276 29.744 36.3991 30.5472 37.1837 31.354C38.0556 32.2501 38.7621 32.9342 39.6247 33.795C40.0095 33.2819 40.3925 32.7837 41.006 32.1255C41.1361 31.9861 41.6511 31.4451 42.484 30.9376C42.7851 30.7535 43.3726 30.4003 44.2185 30.1661C44.8041 30.0043 45.9233 29.7831 47.2693 30.0694C48.104 30.246 48.7119 30.5509 49.0038 30.7126C50.2922 31.4228 50.9596 32.3895 51.1232 32.6405C51.3407 32.9696 51.6474 33.4436 51.8092 34.1538C51.9635 34.825 51.917 35.3976 51.8612 35.7526C50.307 35.695 48.6487 35.6541 47.0648 35.5965C45.9493 35.5556 44.8301 35.5853 43.7203 35.6876C41.2979 35.9144 39.9686 36.3959 39.4313 36.6041C38.9628 36.7863 37.483 37.3942 35.9994 38.6342C33.2684 40.9135 32.6177 43.5757 32.4727 44.2617C32.1102 45.9665 32.3259 47.4259 32.5973 48.4298C32.6177 48.5079 32.64 48.5841 32.6605 48.6566C32.9951 49.7851 33.4804 50.6607 33.8317 51.2073C34.54 52.3098 35.3543 53.1203 35.9864 53.6632C36.2988 53.9327 36.7877 54.3176 37.4607 54.6931C41.0469 56.6861 44.8469 55.8067 44.8469 55.8067C45.4455 55.6673 47.4663 55.1356 49.3719 53.401C50.571 52.3098 51.2682 51.159 51.653 50.3967C51.653 50.3986 51.6493 50.406 51.6493 50.406C51.6493 50.406 51.6679 50.6552 51.6512 50.882C51.6233 52.4864 51.627 53.797 51.6382 55.4089H59.1154C59.1136 54.9218 59.1154 44.8157 59.1154 44.6335H59.121ZM49.2548 50.0193C46.7989 51.5754 43.512 50.7481 42.1066 48.1454C40.9446 45.9925 41.5191 43.2727 43.4544 41.7743C44.1795 41.2128 44.9026 40.8726 45.7355 40.7536C45.7355 40.7536 45.7485 40.7536 45.7671 40.7499C45.8694 40.7369 45.9716 40.7294 46.0739 40.7294L51.7069 40.7071L51.6642 45.3735C51.7999 47.1731 50.8852 48.9876 49.2548 50.0212V50.0193Z" fill="#F05722"></path>
  <path d="M106.281 27.5989C105.344 26.0856 104.16 25.2415 103.89 25.0538C103.727 24.9404 103.16 24.5555 102.33 24.1949C100.726 23.4958 99.3076 23.3899 98.6903 23.3676C98.3799 23.3564 97.6418 23.3453 96.7141 23.494C95.3142 23.7189 94.3103 24.1744 93.9404 24.3529C93.6076 24.5146 92.0125 25.3103 90.6888 26.9835C89.6012 28.3592 89.235 29.6476 89.1569 29.9525C89.1365 30.0324 89.116 30.1161 89.0956 30.1979C88.9933 29.8837 88.8427 29.4468 88.6364 28.9337C88.3612 28.2477 88.2088 27.8703 87.9782 27.4706C87.9782 27.4706 87.1807 26.0874 85.5168 25.0203C85.3569 24.9181 84.7992 24.5816 84.4088 24.3659C84.4088 24.3659 84.0295 24.1577 83.6354 23.9904C82.3099 23.4308 80.3875 23.3657 80.3875 23.3657C79.9562 23.3508 79.2981 23.3322 78.4466 23.4605C78.1269 23.5089 76.9761 23.7003 75.6394 24.351C73.7599 25.2657 72.6909 26.5132 72.3191 26.9817C71.2538 28.3221 70.8801 29.5918 70.7872 29.9506C70.7574 30.064 70.7277 30.1849 70.7017 30.302L70.7872 23.2207H63.2969V55.4054H70.7872C70.8095 50.7874 70.7835 46.1489 70.7797 41.5309C70.7779 39.3837 70.8002 37.2327 70.7463 35.091C70.7054 33.4234 71.5141 31.7614 72.9976 30.7668C74.6578 29.655 77.017 29.5026 78.8315 30.3894C81.5179 31.7019 81.7354 34.1708 81.7354 36.6248V55.4054C81.7354 55.4054 81.7558 55.4054 81.7912 55.4054H83.9663C85.8812 55.4054 88.8 55.4054 89.1588 55.4054C89.1866 55.4054 89.2015 55.4054 89.2015 55.4054V34.0537C89.4432 32.7597 90.1943 31.5532 91.3674 30.7686C93.0275 29.6569 95.3867 29.5044 97.2012 30.3912C99.8876 31.7038 100.105 34.1726 100.105 36.6266V55.4072H107.528V31.6833C107.493 30.8133 107.298 29.2405 106.281 27.5989ZM70.4488 31.5866C70.4488 31.5866 70.4488 31.6052 70.4488 31.6145C70.447 31.6052 70.447 31.5959 70.4488 31.5866Z" fill="#F05722"></path>
</svg>