<?xml version="1.0" encoding="UTF-8" standalone="no"?>
<svg
   xmlns:dc="http://purl.org/dc/elements/1.1/"
   xmlns:cc="http://creativecommons.org/ns#"
   xmlns:rdf="http://www.w3.org/1999/02/22-rdf-syntax-ns#"
   xmlns:svg="http://www.w3.org/2000/svg"
   xmlns="http://www.w3.org/2000/svg"
   viewBox="0 0 116.25 75"
   height="18.75"
   width="29.0625"
   xml:space="preserve"
   version="1.1"
   id="svg2"><metadata
     id="metadata8"><rdf:RDF><cc:Work
         rdf:about=""><dc:format>image/svg+xml</dc:format><dc:type
           rdf:resource="http://purl.org/dc/dcmitype/StillImage" /><dc:title></dc:title></cc:Work></rdf:RDF></metadata><defs
     id="defs6"><clipPath
       id="clipPath16"
       clipPathUnits="userSpaceOnUse"><path
         id="path18"
         d="M 0,60 93,60 93,0 0,0 0,60 Z" /></clipPath></defs><g
     transform="matrix(1.25,0,0,-1.25,0,75)"
     id="g10"><g
       id="g12"><g
         clip-path="url(#clipPath16)"
         id="g14"><g
           transform="translate(75.4501,20.7423)"
           id="g20"><path
             id="path22"
             style="fill:#fff;fill-opacity:1;fill-rule:nonzero;stroke:none"
             d="m 0,0 c -2.673,-2.801 -6.238,-4.328 -10.058,-4.328 -3.819,0 -7.384,1.527 -10.185,4.328 -2.673,2.929 -4.201,6.62 -4.201,10.567 0,3.947 1.528,7.766 4.201,10.567 2.801,2.801 6.366,4.329 10.185,4.329 3.82,0 7.385,-1.528 10.058,-4.329 C 2.801,18.333 4.2,14.514 4.2,10.567 4.2,6.62 2.801,2.929 0,0 M 8.021,35.258 6.747,31.379 c -5.093,4.329 -11.712,7.546 -18.842,7.546 -5.093,0 -9.867,-0.945 -14.022,-3.199 -1.534,1.116 -3.779,1.919 -3.779,1.919 -2.928,1.018 -6.111,1.611 -9.294,1.611 -7.257,0 -14.513,-3.59 -18.587,-8.937 l -2.292,4.939 -15.381,0 0,-56 18,0 0,34.11 c 0,8.255 10.44,13.695 19.159,10.943 -2.186,-4.08 -3.194,-8.752 -3.194,-13.744 0,-16.041 12.005,-29.028 28.174,-29.028 7.129,0 8.861,2.547 17.861,6.876 l 0,-9.157 13,0 0,56 -9.529,0 z" /></g></g></g></g></svg>