<svg id="Layer_1" data-name="Layer 1" xmlns="http://www.w3.org/2000/svg" viewBox="0 0 120.9 120.9" width="120.9px">
  <defs>
    <style>
      .cls-1{fill:#5a2f5d;}
      .cls-2{fill:#fff;}
    </style>
  </defs>
  <title>new-b-logo-white</title>
  <circle class="cls-1" cx="60.45" cy="60.45" r="60.45"></circle>
  <path class="cls-2" d="M33.05,98.4h36.4c15.2,0,25.4-8.9,25.4-22.2a19.3,19.3,0,0,0-10.6-17.3l-1-.5.9-.6c5.1-3.6,7.4-7.6,7.4-13-.1-13.4-10.5-22.3-26-22.3H44.35V38.7h19.4c5.1,0,8.2,2.8,8.2,7.4,0,5.3-4.1,6-8.2,6H26.05V67.2h7ZM66.75,82H52.05V67.2h14.7c5.3,0,8.5,2.8,8.5,7.4S72.05,82,66.75,82Z"></path>
</svg>